<svg xmlns="http://www.w3.org/2000/svg" xmlns:xlink="http://www.w3.org/1999/xlink" width="50" zoomAndPan="magnify" viewBox="0 0 37.5 37.499999" height="50" preserveAspectRatio="xMidYMid meet" version="1.0"><defs><clipPath id="id1"><path d="M 5.550781 3.75 L 31.800781 3.75 L 31.800781 33.75 L 5.550781 33.75 Z M 5.550781 3.75 " clip-rule="nonzero"/></clipPath></defs><g clip-path="url(#id1)"><path fill="#179894" d="M 29.222656 3.75 L 12.757812 3.75 C 11.339844 3.75 10.1875 4.910156 10.1875 6.335938 L 10.1875 18.234375 L 6.070312 18.234375 C 5.789062 18.234375 5.554688 18.464844 5.554688 18.75 L 5.554688 30.90625 C 5.554688 32.472656 6.828125 33.75 8.386719 33.75 L 29.222656 33.75 C 30.640625 33.75 31.792969 32.589844 31.792969 31.164062 L 31.792969 6.335938 C 31.792969 4.910156 30.640625 3.75 29.222656 3.75 Z M 6.585938 30.90625 L 6.585938 19.265625 L 10.1875 19.265625 L 10.1875 30.90625 C 10.1875 31.902344 9.378906 32.714844 8.386719 32.714844 C 7.390625 32.714844 6.585938 31.902344 6.585938 30.90625 Z M 30.765625 31.164062 C 30.765625 32.015625 30.070312 32.714844 29.222656 32.714844 L 11.214844 32.714844 L 11.214844 6.335938 C 11.214844 5.484375 11.910156 4.785156 12.757812 4.785156 L 29.222656 4.785156 C 30.070312 4.785156 30.765625 5.484375 30.765625 6.335938 Z M 30.765625 31.164062 " fill-opacity="1" fill-rule="nonzero"/></g><path fill="#179894" d="M 16.015625 13.753906 C 17.285156 13.753906 18.5 13.207031 19.34375 12.25 C 19.386719 12.203125 19.414062 12.148438 19.4375 12.097656 C 19.476562 12 19.484375 11.886719 19.457031 11.78125 C 19.199219 10.710938 18.472656 9.863281 17.53125 9.414062 C 17.867188 9.046875 18.078125 8.558594 18.078125 8.023438 C 18.078125 6.878906 17.152344 5.949219 16.015625 5.949219 C 14.878906 5.949219 13.953125 6.878906 13.953125 8.023438 C 13.953125 8.558594 14.164062 9.046875 14.496094 9.414062 C 13.566406 9.859375 12.847656 10.691406 12.582031 11.746094 C 12.546875 11.859375 12.550781 11.984375 12.597656 12.097656 C 12.625 12.160156 12.660156 12.21875 12.710938 12.269531 C 13.546875 13.214844 14.75 13.753906 16.015625 13.753906 Z M 14.980469 8.023438 C 14.980469 7.449219 15.445312 6.984375 16.015625 6.984375 C 16.585938 6.984375 17.050781 7.449219 17.050781 8.023438 C 17.050781 8.597656 16.585938 9.0625 16.019531 9.0625 C 16.019531 9.0625 16.015625 9.0625 16.015625 9.0625 C 16.015625 9.0625 16.011719 9.0625 16.011719 9.0625 C 15.445312 9.0625 14.980469 8.597656 14.980469 8.023438 Z M 16.011719 10.097656 C 16.011719 10.097656 16.015625 10.101562 16.011719 10.097656 C 16.015625 10.097656 16.015625 10.097656 16.019531 10.097656 C 17.089844 10.097656 18.027344 10.769531 18.382812 11.761719 C 17.75 12.371094 16.898438 12.714844 16.015625 12.714844 C 15.128906 12.714844 14.28125 12.367188 13.652344 11.761719 C 14.007812 10.773438 14.941406 10.101562 16.011719 10.097656 Z M 16.011719 10.097656 " fill-opacity="1" fill-rule="nonzero"/><path fill="#179894" d="M 21.523438 8.539062 L 24.167969 8.539062 C 24.453125 8.539062 24.683594 8.308594 24.683594 8.023438 C 24.683594 7.738281 24.453125 7.503906 24.167969 7.503906 L 21.523438 7.503906 C 21.242188 7.503906 21.011719 7.738281 21.011719 8.023438 C 21.011719 8.308594 21.238281 8.539062 21.523438 8.539062 Z M 21.523438 8.539062 " fill-opacity="1" fill-rule="nonzero"/><path fill="#179894" d="M 21.523438 11.488281 L 28.691406 11.488281 C 28.976562 11.488281 29.207031 11.253906 29.207031 10.96875 C 29.207031 10.6875 28.976562 10.453125 28.691406 10.453125 L 21.523438 10.453125 C 21.242188 10.453125 21.011719 10.6875 21.011719 10.96875 C 21.011719 11.253906 21.238281 11.488281 21.523438 11.488281 Z M 21.523438 11.488281 " fill-opacity="1" fill-rule="nonzero"/><path fill="#179894" d="M 28.800781 15.496094 L 13.179688 15.496094 C 12.898438 15.496094 12.664062 15.730469 12.664062 16.015625 C 12.664062 16.296875 12.898438 16.53125 13.179688 16.53125 L 28.792969 16.53125 C 29.078125 16.53125 29.308594 16.296875 29.308594 16.015625 C 29.308594 15.730469 29.082031 15.496094 28.800781 15.496094 Z M 28.800781 15.496094 " fill-opacity="1" fill-rule="nonzero"/><path fill="#179894" d="M 28.800781 18.824219 L 13.179688 18.824219 C 12.898438 18.824219 12.664062 19.054688 12.664062 19.339844 C 12.664062 19.625 12.898438 19.855469 13.179688 19.855469 L 28.792969 19.855469 C 29.078125 19.855469 29.308594 19.625 29.308594 19.339844 C 29.308594 19.054688 29.082031 18.824219 28.800781 18.824219 Z M 28.800781 18.824219 " fill-opacity="1" fill-rule="nonzero"/><path fill="#179894" d="M 28.800781 22.148438 L 13.179688 22.148438 C 12.898438 22.148438 12.664062 22.382812 12.664062 22.664062 C 12.664062 22.949219 12.898438 23.183594 13.179688 23.183594 L 28.792969 23.183594 C 29.078125 23.183594 29.308594 22.949219 29.308594 22.664062 C 29.308594 22.382812 29.082031 22.148438 28.800781 22.148438 Z M 28.800781 22.148438 " fill-opacity="1" fill-rule="nonzero"/><path fill="#179894" d="M 28.800781 25.472656 L 13.179688 25.472656 C 12.898438 25.472656 12.664062 25.707031 12.664062 25.992188 C 12.664062 26.277344 12.898438 26.507812 13.179688 26.507812 L 28.792969 26.507812 C 29.078125 26.507812 29.308594 26.277344 29.308594 25.992188 C 29.308594 25.707031 29.082031 25.472656 28.800781 25.472656 Z M 28.800781 25.472656 " fill-opacity="1" fill-rule="nonzero"/><path fill="#179894" d="M 28.800781 28.800781 L 13.179688 28.800781 C 12.898438 28.800781 12.664062 29.03125 12.664062 29.316406 C 12.664062 29.601562 12.898438 29.835938 13.179688 29.835938 L 28.792969 29.835938 C 29.078125 29.835938 29.308594 29.601562 29.308594 29.316406 C 29.308594 29.03125 29.082031 28.800781 28.800781 28.800781 Z M 28.800781 28.800781 " fill-opacity="1" fill-rule="nonzero"/></svg>