<svg xmlns="http://www.w3.org/2000/svg" xmlns:xlink="http://www.w3.org/1999/xlink" width="50" zoomAndPan="magnify" viewBox="0 0 37.5 37.499999" height="50" preserveAspectRatio="xMidYMid meet" version="1.0"><defs><clipPath id="id1"><path d="M 4 13 L 12 13 L 12 33.011719 L 4 33.011719 Z M 4 13 " clip-rule="nonzero"/></clipPath><clipPath id="id2"><path d="M 3.75 4.511719 L 12 4.511719 L 12 12 L 3.75 12 Z M 3.75 4.511719 " clip-rule="nonzero"/></clipPath><clipPath id="id3"><path d="M 13 13 L 33.75 13 L 33.75 33 L 13 33 Z M 13 13 " clip-rule="nonzero"/></clipPath></defs><g clip-path="url(#id1)"><path fill="#179894" d="M 10.875 13.546875 L 4.640625 13.546875 C 4.441406 13.546875 4.242188 13.699219 4.242188 13.945312 L 4.242188 32.613281 C 4.242188 32.8125 4.394531 33.011719 4.640625 33.011719 L 10.824219 33.011719 C 11.023438 33.011719 11.222656 32.863281 11.222656 32.613281 L 11.222656 13.898438 C 11.222656 13.699219 11.074219 13.546875 10.875 13.546875 Z M 10.476562 32.214844 L 5.039062 32.214844 L 5.039062 14.296875 L 10.476562 14.296875 Z M 10.476562 32.214844 " fill-opacity="1" fill-rule="nonzero"/></g><g clip-path="url(#id2)"><path fill="#179894" d="M 7.78125 4.511719 C 5.539062 4.511719 3.894531 6.011719 3.894531 8.105469 C 3.894531 10.203125 5.488281 11.699219 7.683594 11.699219 L 7.78125 11.699219 C 10.027344 11.699219 11.671875 10.203125 11.671875 8.105469 C 11.570312 6.011719 10.027344 4.511719 7.78125 4.511719 Z M 7.78125 11.003906 C 5.9375 11.003906 4.691406 9.804688 4.691406 8.15625 C 4.691406 6.460938 5.9375 5.261719 7.78125 5.261719 C 9.578125 5.261719 10.824219 6.410156 10.875 8.105469 C 10.875 9.804688 9.628906 11.003906 7.78125 11.003906 Z M 7.78125 11.003906 " fill-opacity="1" fill-rule="nonzero"/></g><g clip-path="url(#id3)"><path fill="#179894" d="M 26.078125 13.097656 C 23.386719 13.097656 21.839844 14.246094 20.84375 15.394531 L 20.84375 13.898438 C 20.84375 13.699219 20.695312 13.496094 20.445312 13.496094 L 14.261719 13.496094 C 14.164062 13.496094 14.0625 13.546875 14.015625 13.597656 C 13.964844 13.648438 13.914062 13.746094 13.914062 13.898438 C 14.015625 15.59375 13.914062 32.363281 13.914062 32.5625 C 13.914062 32.664062 13.964844 32.765625 14.015625 32.8125 C 14.0625 32.863281 14.164062 32.914062 14.261719 32.914062 L 20.445312 32.914062 C 20.644531 32.914062 20.84375 32.765625 20.84375 32.515625 L 20.84375 22.132812 C 20.84375 21.484375 20.894531 21.035156 21.042969 20.734375 C 21.292969 20.136719 22.039062 18.6875 23.882812 18.6875 C 25.730469 18.6875 26.625 19.988281 26.625 22.53125 L 26.625 32.515625 C 26.625 32.714844 26.777344 32.914062 27.023438 32.914062 L 33.207031 32.914062 C 33.40625 32.914062 33.605469 32.765625 33.605469 32.515625 L 33.605469 21.882812 C 33.605469 16.394531 30.765625 13.097656 26.078125 13.097656 Z M 32.808594 32.214844 L 27.375 32.214844 L 27.375 22.582031 C 27.375 19.636719 26.128906 17.988281 23.882812 17.988281 C 22.289062 17.988281 20.992188 18.9375 20.34375 20.484375 C 20.195312 20.886719 20.097656 21.382812 20.097656 22.132812 L 20.097656 32.214844 L 14.664062 32.214844 C 14.664062 29.820312 14.710938 17.089844 14.664062 14.296875 L 20.097656 14.296875 L 20.097656 16.441406 C 20.046875 16.542969 20.046875 16.691406 20.144531 16.792969 C 20.195312 16.890625 20.34375 16.992188 20.496094 16.992188 C 20.695312 16.992188 20.84375 16.84375 20.84375 16.691406 C 21.742188 15.34375 23.136719 13.847656 26.078125 13.847656 C 30.367188 13.847656 32.859375 16.792969 32.859375 21.882812 L 32.859375 32.214844 Z M 32.808594 32.214844 " fill-opacity="1" fill-rule="nonzero"/></g></svg>