<svg xmlns="http://www.w3.org/2000/svg" xmlns:xlink="http://www.w3.org/1999/xlink" width="50" zoomAndPan="magnify" viewBox="0 0 37.5 37.499999" height="50" preserveAspectRatio="xMidYMid meet" version="1.0"><defs><clipPath id="id1"><path d="M 3.75 4.386719 L 22 4.386719 L 22 32.886719 L 3.75 32.886719 Z M 3.75 4.386719 " clip-rule="nonzero"/></clipPath><clipPath id="id2"><path d="M 19 9 L 33.75 9 L 33.75 29 L 19 29 Z M 19 9 " clip-rule="nonzero"/></clipPath><clipPath id="id3"><path d="M 19 9 L 33.75 9 L 33.75 19 L 19 19 Z M 19 9 " clip-rule="nonzero"/></clipPath></defs><g clip-path="url(#id1)"><path fill="#179894" d="M 20.597656 32.917969 C 20.558594 32.917969 20.515625 32.914062 20.472656 32.910156 L 4.757812 30.769531 C 4.296875 30.707031 3.957031 30.320312 3.957031 29.859375 L 3.957031 7.84375 C 3.957031 7.390625 4.289062 7.007812 4.738281 6.9375 L 20.457031 4.492188 C 20.722656 4.445312 20.996094 4.523438 21.199219 4.699219 C 21.40625 4.875 21.523438 5.128906 21.523438 5.398438 L 21.523438 32 C 21.523438 32.265625 21.410156 32.519531 21.207031 32.691406 C 21.035156 32.839844 20.820312 32.917969 20.597656 32.917969 Z M 5.804688 29.058594 L 19.675781 30.949219 L 19.675781 6.46875 L 5.804688 8.628906 Z M 5.804688 29.058594 " fill-opacity="1" fill-rule="nonzero"/></g><path fill="#179894" d="M 12.585938 24.355469 C 10.207031 24.355469 8.273438 21.886719 8.273438 18.851562 C 8.273438 15.816406 10.207031 13.347656 12.585938 13.347656 C 14.964844 13.347656 16.902344 15.816406 16.902344 18.851562 C 16.902344 21.886719 14.964844 24.355469 12.585938 24.355469 Z M 12.585938 15.183594 C 11.25 15.183594 10.121094 16.863281 10.121094 18.851562 C 10.121094 20.839844 11.25 22.519531 12.585938 22.519531 C 13.921875 22.519531 15.050781 20.839844 15.050781 18.851562 C 15.050781 16.863281 13.921875 15.183594 12.585938 15.183594 Z M 12.585938 15.183594 " fill-opacity="1" fill-rule="nonzero"/><g clip-path="url(#id2)"><path fill="#179894" d="M 31.386719 28.332031 L 20.597656 28.332031 C 20.089844 28.332031 19.675781 27.921875 19.675781 27.414062 L 19.675781 10.289062 C 19.675781 9.78125 20.089844 9.371094 20.597656 9.371094 L 31.386719 9.371094 C 31.914062 9.371094 32.421875 9.5625 32.8125 9.910156 C 33.273438 10.300781 33.542969 10.890625 33.542969 11.511719 L 33.542969 26.191406 C 33.542969 27.371094 32.574219 28.332031 31.386719 28.332031 Z M 21.523438 26.496094 L 31.386719 26.496094 C 31.554688 26.496094 31.695312 26.355469 31.695312 26.191406 L 31.695312 11.511719 C 31.695312 11.425781 31.660156 11.34375 31.597656 11.292969 C 31.527344 11.230469 31.464844 11.207031 31.386719 11.207031 L 21.523438 11.207031 Z M 21.523438 26.496094 " fill-opacity="1" fill-rule="nonzero"/></g><g clip-path="url(#id3)"><path fill="#179894" d="M 24.421875 18.59375 C 24.207031 18.59375 23.992188 18.519531 23.816406 18.371094 L 19.996094 15.105469 C 19.609375 14.773438 19.566406 14.195312 19.898438 13.8125 C 20.234375 13.425781 20.816406 13.386719 21.203125 13.714844 L 24.402344 16.449219 L 31.574219 9.917969 C 31.949219 9.578125 32.535156 9.597656 32.882812 9.976562 C 33.226562 10.347656 33.203125 10.929688 32.824219 11.273438 L 25.046875 18.355469 C 24.871094 18.515625 24.644531 18.59375 24.421875 18.59375 Z M 24.421875 18.59375 " fill-opacity="1" fill-rule="nonzero"/></g></svg>