<svg xmlns="http://www.w3.org/2000/svg" xmlns:xlink="http://www.w3.org/1999/xlink" width="50" zoomAndPan="magnify" viewBox="0 0 37.5 37.499999" height="50" preserveAspectRatio="xMidYMid meet" version="1.0"><defs><clipPath id="id1"><path d="M 6.476562 3.75 L 31 3.75 L 31 33 L 6.476562 33 Z M 6.476562 3.75 " clip-rule="nonzero"/></clipPath></defs><g clip-path="url(#id1)"><path fill="#179894" d="M 21.652344 3.96875 C 18.003906 5.683594 12.742188 7.15625 7.578125 7.910156 C 7.089844 7.980469 6.707031 8.332031 6.597656 8.808594 C 6.484375 9.28125 6.675781 9.765625 7.082031 10.039062 C 9.242188 11.496094 11.34375 13.125 13.222656 14.777344 C 15.101562 16.433594 16.753906 18.113281 18.019531 19.671875 C 18.355469 20.082031 18.910156 20.222656 19.402344 20.015625 C 19.894531 19.808594 20.179688 19.316406 20.117188 18.792969 L 19.671875 15.191406 C 20.304688 15.371094 20.902344 15.609375 21.460938 15.9375 C 23.730469 17.253906 25.082031 19.167969 25.050781 21.824219 C 25.019531 24.167969 23.828125 25.980469 21.945312 27.3125 C 19.710938 28.898438 16.875 29.390625 14.207031 28.738281 C 11.433594 28.0625 9.078125 26.640625 7.140625 24.542969 C 7.136719 24.539062 7.132812 24.535156 7.128906 24.535156 C 6.996094 24.386719 6.765625 24.5625 6.871094 24.730469 C 7.242188 25.328125 7.636719 25.910156 8.0625 26.472656 C 9.355469 28.167969 10.828125 29.683594 12.625 30.859375 C 17.039062 33.75 22.679688 33.316406 26.648438 30.070312 C 28.996094 28.144531 30.371094 25.640625 30.777344 22.648438 C 31.210938 19.417969 30.238281 16.554688 28.28125 14 C 26.648438 11.867188 24.507812 10.382812 22.015625 9.390625 C 21.671875 9.253906 21.324219 9.128906 20.976562 9.015625 L 23.152344 5.667969 C 23.445312 5.222656 23.402344 4.65625 23.050781 4.257812 C 22.699219 3.859375 22.136719 3.742188 21.652344 3.96875 " fill-opacity="1" fill-rule="nonzero"/></g></svg>